<svg width="1920" height="1080" fill="none" xmlns="http://www.w3.org/2000/svg">
<g clip-path="url(#clip0_2247_73)">
<path fill-rule="evenodd" clip-rule="evenodd" d="M1920 0H0V1080H1920V0ZM260 60.5L309.5 27.5H869L1289 22H1489L1891.5 30.5L1896 181.5L1898.5 762L1895 1061L1560 1053H1020.5L624 1056L436.5 1054L290 1046.5L22.5 1030.5V813V517L27 160.5L67.5 184.5L109.5 156.5L93 137L102.5 31L136 58.5L217 55.5L252 35L258 58.5L260 60.5Z" fill="black"/>
<path d="M121.8 73C120.8 72.4 119.7 72.5 118.6 73.3C118.115 73.6546 117.706 74.1027 117.397 74.6179C117.087 75.1332 116.885 75.7051 116.8 76.3V78.4C117.1 80.5 118.5 81.7 120.3 82.7L120.9 81.8L122.8 76.4C123.2 75.2 122.6 73.7 121.8 73ZM121.8 73C120.8 72.4 119.7 72.5 118.6 73.3C118.115 73.6546 117.706 74.1027 117.397 74.6179C117.087 75.1332 116.885 75.7051 116.8 76.3V78.4C117.1 80.5 118.5 81.7 120.3 82.7L120.9 81.8L122.8 76.4C123.2 75.2 122.6 73.7 121.8 73ZM121.8 73C120.8 72.4 119.7 72.5 118.6 73.3C118.115 73.6546 117.706 74.1027 117.397 74.6179C117.087 75.1332 116.885 75.7051 116.8 76.3V78.4C117.1 80.5 118.5 81.7 120.3 82.7L120.9 81.8L122.8 76.4C123.2 75.2 122.6 73.7 121.8 73ZM121.8 73C120.8 72.4 119.7 72.5 118.6 73.3C118.115 73.6546 117.706 74.1027 117.397 74.6179C117.087 75.1332 116.885 75.7051 116.8 76.3V78.4C117.1 80.5 118.5 81.7 120.3 82.7L120.9 81.8L122.8 76.4C123.2 75.2 122.6 73.7 121.8 73ZM121.8 73C120.8 72.4 119.7 72.5 118.6 73.3C118.115 73.6546 117.706 74.1027 117.397 74.6179C117.087 75.1332 116.885 75.7051 116.8 76.3V78.4C117.1 80.5 118.5 81.7 120.3 82.7L120.9 81.8L122.8 76.4C123.2 75.2 122.6 73.7 121.8 73ZM121.8 73C120.8 72.4 119.7 72.5 118.6 73.3C118.115 73.6546 117.706 74.1027 117.397 74.6179C117.087 75.1332 116.885 75.7051 116.8 76.3V78.4C117.1 80.5 118.5 81.7 120.3 82.7L120.9 81.8L122.8 76.4C123.2 75.2 122.6 73.7 121.8 73ZM121.8 73C120.8 72.4 119.7 72.5 118.6 73.3C118.115 73.6546 117.706 74.1027 117.397 74.6179C117.087 75.1332 116.885 75.7051 116.8 76.3V78.4C117.1 80.5 118.5 81.7 120.3 82.7L120.9 81.8L122.8 76.4C123.2 75.2 122.6 73.7 121.8 73ZM121.8 73C120.8 72.4 119.7 72.5 118.6 73.3C118.115 73.6546 117.706 74.1027 117.397 74.6179C117.087 75.1332 116.885 75.7051 116.8 76.3V78.4C117.1 80.5 118.5 81.7 120.3 82.7L120.9 81.8L122.8 76.4C123.2 75.2 122.6 73.7 121.8 73ZM121.8 73C120.8 72.4 119.7 72.5 118.6 73.3C118.115 73.6546 117.706 74.1027 117.397 74.6179C117.087 75.1332 116.885 75.7051 116.8 76.3V78.4C117.1 80.5 118.5 81.7 120.3 82.7L120.9 81.8L122.8 76.4C123.2 75.2 122.6 73.7 121.8 73ZM149.8 133.6L149.5 133.3L149.2 133.1L148.8 132.9H148.1C147.867 132.916 147.633 132.916 147.4 132.9H146.3C145.8 132.9 145.5 133.1 145.3 133.4L144.4 134.4C144.2 134.4 144.1 134.6 143.9 134.7L143.5 135.2L142.5 136.7L141.7 138.3C141.7 138.5 141.5 138.6 141.3 138.7C141.189 138.748 141.087 138.816 141 138.9H141.1L142.4 138.7C143.34 138.458 144.274 138.191 145.2 137.9C145.5 137.9 145.9 137.6 146.4 137.2L147.4 136.5C148.076 136.059 148.683 135.52 149.2 134.9L149.6 134.4C149.8 134.4 149.9 134.2 150 134V133.9C150 133.8 150 133.7 149.8 133.6ZM121.8 73C120.8 72.4 119.7 72.5 118.6 73.3C118.115 73.6546 117.706 74.1027 117.397 74.6179C117.087 75.1332 116.885 75.7051 116.8 76.3V78.4C117.1 80.5 118.5 81.7 120.3 82.7L120.9 81.8L122.8 76.4C123.2 75.2 122.6 73.7 121.8 73ZM149.8 133.6L149.5 133.3L149.2 133.1L148.8 132.9H148.1C147.867 132.916 147.633 132.916 147.4 132.9H146.3C145.8 132.9 145.5 133.1 145.3 133.4L144.4 134.4C144.2 134.4 144.1 134.6 143.9 134.7L143.5 135.2L142.5 136.7L141.7 138.3C141.7 138.5 141.5 138.6 141.3 138.7C141.189 138.748 141.087 138.816 141 138.9H141.1L142.4 138.7C143.34 138.458 144.274 138.191 145.2 137.9C145.5 137.9 145.9 137.6 146.4 137.2L147.4 136.5C148.076 136.059 148.683 135.52 149.2 134.9L149.6 134.4C149.8 134.4 149.9 134.2 150 134V133.9C150 133.8 150 133.7 149.8 133.6ZM121.8 73C120.8 72.4 119.7 72.5 118.6 73.3C118.115 73.6546 117.706 74.1027 117.397 74.6179C117.087 75.1332 116.885 75.7051 116.8 76.3V78.4C117.1 80.5 118.5 81.7 120.3 82.7L120.9 81.8L122.8 76.4C123.2 75.2 122.6 73.7 121.8 73ZM149.8 133.6L149.5 133.3L149.2 133.1L148.8 132.9H148.1C147.867 132.916 147.633 132.916 147.4 132.9H146.3C145.8 132.9 145.5 133.1 145.3 133.4L144.4 134.4C144.2 134.4 144.1 134.6 143.9 134.7L143.5 135.2L142.5 136.7L141.7 138.3C141.7 138.5 141.5 138.6 141.3 138.7C141.189 138.748 141.087 138.816 141 138.9H141.1L142.4 138.7C143.34 138.458 144.274 138.191 145.2 137.9C145.5 137.9 145.9 137.6 146.4 137.2L147.4 136.5C148.076 136.059 148.683 135.52 149.2 134.9L149.6 134.4C149.8 134.4 149.9 134.2 150 134V133.9C150 133.8 150 133.7 149.8 133.6ZM175.2 137.6C175.2 137.1 175 136.6 174.7 136.1C174.451 135.667 174.282 135.193 174.2 134.7L173.8 133.3C173.613 132.85 173.479 132.381 173.4 131.9C173.3 131.9 173.1 132.1 172.9 132.6L172.5 133.6L172.2 134.4C172.13 134.755 171.995 135.095 171.8 135.4L171.6 135.5C171.421 135.813 171.286 136.15 171.2 136.5V136.8C171.2 136.9 171.2 137 171.6 136.9H172.6L174.1 137.2L175.3 137.8V137.7L175.2 137.6ZM121.8 73C120.8 72.4 119.7 72.5 118.6 73.3C118.115 73.6546 117.706 74.1027 117.397 74.6179C117.087 75.1332 116.885 75.7051 116.8 76.3V78.4C117.1 80.5 118.5 81.7 120.3 82.7L120.9 81.8L122.8 76.4C123.2 75.2 122.6 73.7 121.8 73ZM149.8 133.6L149.5 133.3L149.2 133.1L148.8 132.9H148.1C147.867 132.916 147.633 132.916 147.4 132.9H146.3C145.8 132.9 145.5 133.1 145.3 133.4L144.4 134.4C144.2 134.4 144.1 134.6 143.9 134.7L143.5 135.2L142.5 136.7L141.7 138.3C141.7 138.5 141.5 138.6 141.3 138.7C141.189 138.748 141.087 138.816 141 138.9H141.1L142.4 138.7C143.34 138.458 144.274 138.191 145.2 137.9C145.5 137.9 145.9 137.6 146.4 137.2L147.4 136.5C148.076 136.059 148.683 135.52 149.2 134.9L149.6 134.4C149.8 134.4 149.9 134.2 150 134V133.9C150 133.8 150 133.7 149.8 133.6ZM175.2 137.6C175.2 137.1 175 136.6 174.7 136.1C174.451 135.667 174.282 135.193 174.2 134.7L173.8 133.3C173.613 132.85 173.479 132.381 173.4 131.9C173.3 131.9 173.1 132.1 172.9 132.6L172.5 133.6L172.2 134.4C172.13 134.755 171.995 135.095 171.8 135.4L171.6 135.5C171.421 135.813 171.286 136.15 171.2 136.5V136.8C171.2 136.9 171.2 137 171.6 136.9H172.6L174.1 137.2L175.3 137.8V137.7L175.2 137.6ZM121.8 73C120.8 72.4 119.7 72.5 118.6 73.3C118.115 73.6546 117.706 74.1027 117.397 74.6179C117.087 75.1332 116.885 75.7051 116.8 76.3V78.4C117.1 80.5 118.5 81.7 120.3 82.7L120.9 81.8L122.8 76.4C123.2 75.2 122.6 73.7 121.8 73ZM149.8 133.6L149.5 133.3L149.2 133.1L148.8 132.9H148.1C147.867 132.916 147.633 132.916 147.4 132.9H146.3C145.8 132.9 145.5 133.1 145.3 133.4L144.4 134.4C144.2 134.4 144.1 134.6 143.9 134.7L143.5 135.2L142.5 136.7L141.7 138.3C141.7 138.5 141.5 138.6 141.3 138.7C141.189 138.748 141.087 138.816 141 138.9H141.1L142.4 138.7C143.34 138.458 144.274 138.191 145.2 137.9C145.5 137.9 145.9 137.6 146.4 137.2L147.4 136.5C148.076 136.059 148.683 135.52 149.2 134.9L149.6 134.4C149.8 134.4 149.9 134.2 150 134V133.9C150 133.8 150 133.7 149.8 133.6ZM175.2 137.6C175.2 137.1 175 136.6 174.7 136.1C174.451 135.667 174.282 135.193 174.2 134.7L173.8 133.3C173.613 132.85 173.479 132.381 173.4 131.9C173.3 131.9 173.1 132.1 172.9 132.6L172.5 133.6L172.2 134.4C172.13 134.755 171.995 135.095 171.8 135.4L171.6 135.5C171.421 135.813 171.286 136.15 171.2 136.5V136.8C171.2 136.9 171.2 137 171.6 136.9H172.6L174.1 137.2L175.3 137.8V137.7L175.2 137.6ZM121.8 73C120.8 72.4 119.7 72.5 118.6 73.3C118.115 73.6546 117.706 74.1027 117.397 74.6179C117.087 75.1332 116.885 75.7051 116.8 76.3V78.4C117.1 80.5 118.5 81.7 120.3 82.7L120.9 81.8L122.8 76.4C123.2 75.2 122.6 73.7 121.8 73ZM149.8 133.6L149.5 133.3L149.2 133.1L148.8 132.9H148.1C147.867 132.916 147.633 132.916 147.4 132.9H146.3C145.8 132.9 145.5 133.1 145.3 133.4L144.4 134.4C144.2 134.4 144.1 134.6 143.9 134.7L143.5 135.2L142.5 136.7L141.7 138.3C141.7 138.5 141.5 138.6 141.3 138.7C141.189 138.748 141.087 138.816 141 138.9H141.1L142.4 138.7C143.34 138.458 144.274 138.191 145.2 137.9C145.5 137.9 145.9 137.6 146.4 137.2L147.4 136.5C148.076 136.059 148.683 135.52 149.2 134.9L149.6 134.4C149.8 134.4 149.9 134.2 150 134V133.9C150 133.8 150 133.7 149.8 133.6ZM175.2 137.6C175.2 137.1 175 136.6 174.7 136.1C174.451 135.667 174.282 135.193 174.2 134.7L173.8 133.3C173.613 132.85 173.479 132.381 173.4 131.9C173.3 131.9 173.1 132.1 172.9 132.6L172.5 133.6L172.2 134.4C172.13 134.755 171.995 135.095 171.8 135.4L171.6 135.5C171.421 135.813 171.286 136.15 171.2 136.5V136.8C171.2 136.9 171.2 137 171.6 136.9H172.6L174.1 137.2L175.3 137.8V137.7L175.2 137.6ZM1899.4 25C1820.1 23.2 1471.2 14.6 1398.1 13C1172.5 13.9 930.7 17.8 705.6 19.2C573.3 20.2 441.1 21.2 308.8 21.8L308 22.4L262.2 52.7L253.6 29.7L209 18.3L144.4 15L90.4 27.3L89.8 38.5L35.4 36L31.7 125.7L71.7 136.7L83 75.2L59 60.8L47.4 85.9L60.4 103L69.4 84.5L65.3 86.2L59.3 96.2L54.6 86.5L60.6 73.4L76.4 79.9L63.4 124.5L37.5 120.9L45.7 49.4L89.3 46.8L84.1 135.8L99.5 160.3L77 174.1L68.3 179.5C53 171 37 162 21.9 153.9L21.6 165.7C17.3 442.7 17.9 760.8 16 1038.6L22 1038.8C24.8999 1038.97 27.7999 1039.13 30.7 1039.3C50.7 1044.1 71.4 1045.7 91.9 1045.8C112.6 1046.1 133.3 1045 153.9 1044.8H167.7L213.3 1046.6C216.2 1047.2 219.1 1047.9 222 1048.8C223.9 1049.4 225.8 1050.1 227.8 1050.4C229.9 1050.6 231.5 1049.9 233.2 1048.7C233.8 1048.3 234.3 1048 235 1048C236 1048 237 1048.4 238 1048.7L244.3 1050.3C246.3 1050.8 248.1 1051.3 250.1 1051C250.847 1050.89 251.547 1050.57 252.115 1050.07C252.683 1049.58 253.095 1048.93 253.3 1048.2L352.9 1052.3L362.9 1053.7L383.9 1056.7L404.4 1059.6C418.4 1061.5 432.5 1062.5 446.8 1062C461.45 1061.29 476.064 1059.96 490.6 1058L518.6 1059.1C525.6 1059.3 532.9 1059.8 540.6 1060.1L546 1060.3H547.9L606.3 1059.6C819.3 1057.3 1036.7 1054.6 1249.5 1055.3C1462 1059.2 1679.9 1064.1 1892.5 1066.8L1903.4 1067V1055.9C1906.1 760.8 1898.1 323.9 1899.4 24.9V25ZM149.4 22L202.4 25L239 35.3L235.4 42.9L206.8 50.5L144.4 46.9L115.7 39.4L112.5 31.1L149.5 22.1L149.4 22ZM216.4 146L216.5 147C216.5 147.5 216.5 147.7 216.1 147.7C214.17 147.734 212.246 147.464 210.4 146.9C209.491 146.745 208.59 146.544 207.7 146.3C207 146.1 206 145.9 205 145.9C204.1 145.9 203.6 145.9 203.2 146.1C202.538 146.257 201.871 146.391 201.2 146.5L200.6 146.8L199.9 146.9C199.694 146.945 199.492 147.012 199.3 147.1C199.1 147.3 198.8 147.1 198.6 146.8V146.3H199.6C199.9 146.3 200.2 146.1 200.4 145.9C200.5 145.6 200.6 145.3 200.5 145.1C199.399 142.374 198.164 139.704 196.8 137.1L196.7 136.6L196.2 135.9L195.8 135.1C195.353 134.256 194.886 133.423 194.4 132.6L193.7 132.3C193.484 132.3 193.273 132.23 193.1 132.1C193 131.9 193.1 131.9 193.4 131.9H194.1C194.1 132.1 194.6 132 195.6 131.9H197L198.3 131.8C199.128 131.682 199.963 131.616 200.8 131.6L202.1 131.5C202.5 131.5 202.9 131.3 203.1 131.2C203.2 131.2 203.3 131.1 203.3 130.9L203.4 130.7L203.9 130.8C204 131 203.9 131.1 203.9 131.2C203.781 131.261 203.675 131.346 203.589 131.449C203.503 131.552 203.439 131.672 203.4 131.8L203.2 132.5C203.1 132.8 202.7 133 201.9 133C200.967 132.982 200.033 132.982 199.1 133H198.7L198.2 133.1H197L197.1 133.4C197.3 134.1 197.8 134.9 198.4 135.9C198.874 136.502 199.245 137.178 199.5 137.9C200.3 137.9 200.8 137.7 201.1 137.3C201.4 136.9 202 136.7 202.7 136.7H203C203.5 136.7 203.8 136.8 204.1 137.1L205.1 138L206 138.8L207 139.8L206.8 139.9C206.4 139.9 206 139.6 205.8 139.1C205.6 138.7 205.2 138.5 204.6 138.5L202.4 139L200.6 139.7L201.7 141.7L202.3 142.5C202.6 142.7 202.7 142.9 202.8 143.1L203.2 143.9L203.6 144.7L203.8 144.8C204.3 144.8 204.6 144.7 204.8 144.4C205.1 144.1 205.4 144 205.8 144H206.3L207.3 144.1L208.3 144.4L209.2 144.7H210.2C210.877 144.822 211.545 144.989 212.2 145.2L213.6 145.6H214.7C215.1 145.6 215.4 145.6 215.5 145.1C215.559 144.931 215.572 144.749 215.537 144.573C215.502 144.397 215.42 144.233 215.3 144.1L214.5 143.2C214.1 142.9 214.1 142.8 214.4 142.8L215.3 143.4L216.2 144.2C216.5 144.6 216.5 144.9 216.4 145.1C216.2 145.3 216.2 145.7 216.3 146.1L216.4 146ZM176.9 142.9C176.674 142.241 176.474 141.574 176.3 140.9L176 139.9L175.7 139L175 138.4C174.8 138.2 174.5 138.1 174 138L173 137.8H172L171 137.9C170.8 137.9 170.6 138.1 170.4 138.3C170 138.9 169.6 139.5 169.4 140.1C168.826 141.268 168.085 142.346 167.2 143.3C166.907 143.701 166.571 144.07 166.2 144.4L164.7 145.4C164 145.8 163.5 146.1 163 146.1H162.3C161.6 146.1 160.9 145.9 160.3 145.6C159.6 145.3 159.3 144.8 159.5 144.3C159.5 143.9 159.8 143.6 160.3 143.3L161.5 143C161.7 143 161.8 143 162 143.3L162.2 143.7C162.061 143.695 161.925 143.661 161.8 143.6H161.3C160.6 143.6 160.2 143.8 160 144.4C160 144.7 160.1 144.9 160.5 144.9H161.4C162.1 144.9 162.9 144.6 163.6 144.1C164.3 143.5 164.9 142.9 165.5 142.1C166.438 140.905 167.274 139.634 168 138.3H166L165.4 138C165.1 137.8 165 137.6 165.1 137.4C165.1 137.2 165.3 137 165.6 136.7L165.5 137.2C165.5 137.4 165.5 137.6 165.8 137.6L167.3 137.3L168.9 137C169.1 137 169.3 136.6 169.6 136L170 135L171 133L171.6 131C171.6 130.9 171.6 130.7 171.4 130.6L171.2 130.2C171.123 130.122 171.028 130.063 170.924 130.028C170.82 129.994 170.709 129.984 170.6 130C170.3 130 170.1 130 170 129.8H170.2L171.6 129.9C172.1 130.1 172.6 130.1 173.3 130.1H174C174.597 130.169 175.199 130.203 175.8 130.2L176.6 130.3L176.4 130.4H175.9C175.7 130.4 175.6 130.4 175.4 130.6L175.3 130.8C175.62 131.738 175.954 132.671 176.3 133.6L176.7 134.6C177.048 135.415 177.348 136.25 177.6 137.1L178.1 138.1L178.7 139.8L179.3 141.3L179.7 142.5L180.5 143.5L181.7 144.2C182.2 144.5 182.7 144.7 183 144.7C183.2 144.7 183.4 144.7 183.7 144.5H184.6V144.9C184.6 145.2 184.6 145.3 184.3 145.2C183.6 145.2 182.8 145.2 182.1 145C180.777 144.794 179.439 144.694 178.1 144.7C177.37 144.822 176.636 144.922 175.9 145C175.601 145.069 175.301 145.136 175 145.2C175 144.9 175.3 144.7 175.7 144.6L176.8 144.4C177.1 144.4 177.2 144.2 177.2 144.1C177.163 143.687 177.062 143.282 176.9 142.9ZM136.9 146.8C137.1 146.8 137.5 147 138.3 147C139.1 147.1 139.5 147.2 139.4 147.4C139.4 147.4 138.9 147.6 137.9 147.6C136.9 147.6 136.4 147.7 136.2 147.8C134.096 148.229 132.049 148.9 130.1 149.8C129.255 149.946 128.42 150.147 127.6 150.4C127.1 150.6 126.9 150.6 127.1 150.4C127.3 150.1 127.7 149.8 128.3 149.4L129.7 148.9C130.489 148.541 131.29 148.208 132.1 147.9C132.3 147.9 132.4 147.7 132.5 147.5L132.8 147L133.4 146.4L134.1 145.6L135.4 144.1C135.785 143.648 136.152 143.181 136.5 142.7C136.925 142.255 137.325 141.788 137.7 141.3L140.7 136.3L141.9 134.9L142.5 134C142.7 133.7 142.8 133.5 142.8 133.2V132.7C142.644 132.554 142.477 132.42 142.3 132.3C142.146 132.126 141.931 132.019 141.7 132H141C140.9 132 140.9 132 141 131.6L141.2 131.1L141.8 130.5C142.219 130.18 142.653 129.879 143.1 129.6L143.9 129.4H144.2C144.055 129.511 143.882 129.58 143.7 129.6C143.4 129.6 143.2 129.7 142.9 129.9L142.6 130.2L142.4 130.4C142.239 130.541 142.073 130.674 141.9 130.8L142 131.2L142.5 131.5L143.1 131.7L143.9 131.8C144.572 131.904 145.24 132.037 145.9 132.2H149.3C150.1 132.2 150.7 132.2 151 132.4C151.756 132.756 152.491 133.157 153.2 133.6L152.7 134.2L151.9 135L150.9 135.8L150.2 136.3L149.5 136.7L148.8 137.2L148.1 137.8L146.4 138.6C145.587 138.856 144.749 139.023 143.9 139.1H143.4L142.9 139.3C142.736 139.347 142.569 139.381 142.4 139.4H141.8L141.6 139.5H141.3L140.8 139.7H140.3L139.7 140.7C139.444 141.257 139.143 141.792 138.8 142.3L138.6 142.8L138.2 143.3L137.8 143.9C137.453 144.56 137.119 145.226 136.8 145.9C136.5 146.4 136.6 146.7 136.9 146.8ZM136 85.8C136 91.7 136 97.5 136.2 103.3C136.2 104.5 136.6 105.8 137.2 106.9C138.2 108.7 140.1 109.1 142 108.9C143 108.8 143.9 108.5 144.7 108.1C145.7 107.6 146.5 106.9 146.6 105.6V96C146.6 92.7 146.5 89.5 146.3 86.2C146.1 82.8 145.6 79.4 144.5 76.1V75.4H149.5L148.8 79.4C148.6 80.1 148.4 81 148.4 81.8L148.5 97.8C148.5 99.6 148.9 101.5 149.2 103.3C149.6 106.9 147.9 109.3 144.4 110.3C142.4 110.7 140.4 111 138.4 110.4C135.8 109.7 134.2 107.9 134.1 105.1V93.4C134.1 88.8 134 84.4 132.9 79.9L132.4 78.2C132 77.4 132.4 77 133.1 76.8L137.5 75.3L136.9 77.9C136.2 80.5 135.9 83.1 136 85.8ZM133 112.3C133.3 112.3 133.5 112.1 133.7 112L134.3 112.2C137.54 113.472 141.045 113.919 144.5 113.5H145.1L145.6 115.8C142.554 115.915 139.51 115.509 136.6 114.6C135.6 114.3 134.6 113.9 133.8 113.4L131.9 114.3C127.5 116.3 122.9 117.5 118.2 118.3L117.2 131.8C120.323 132.537 123.396 133.472 126.4 134.6L125.7 121.9L121.2 121.4L120.3 127.8L123.2 129.1V125.1L121.8 124.5L124.7 123.7V124.7L124.5 131.6L123.5 130.9L122 129.9C121 129.4 120 128.9 119 128.6L120.3 120.2H120.6L127.1 120.6L127.3 124.8L127.9 136.8L125.5 135.8C122.358 134.574 119.112 133.637 115.8 133V132.4L116.8 117.7V117.2C122.443 116.37 127.935 114.719 133.1 112.3H133ZM131.7 139.6C131.356 133.491 130.889 127.39 130.3 121.3C133 120.4 135.8 119.6 138.4 118.6L141.6 117.3L142 118.1L144 123.7L144.2 124.1L143.9 124.3C142.841 125.544 141.632 126.653 140.3 127.6C139 128.6 137.6 129.6 136 130.2L134.7 130.8V123.2C135.9 122.7 137.2 122.3 138.4 122L140.6 121.5L139.3 124.7L139.2 123.1L136.5 124.3V128.1L137.5 127.7C139.535 126.717 141.367 125.36 142.9 123.7C142.545 122.141 141.863 120.676 140.9 119.4C137.893 119.941 134.991 120.953 132.3 122.4L132.5 123.5C133.116 128.944 133.25 134.432 132.9 139.9V140.3L132.6 140.5L125.3 144.5L124.3 142.5L131.7 139.5V139.6ZM153.7 79C153.7 76.1 152.9 73.2 152.4 70.3C152.4 69.8 152.2 69.5 152.8 69.3L157.8 67.3C158.1 67.1 158.5 67.1 158.8 67C159.4 67 159.8 67.2 159.6 67.9L159.5 68.3C158 70.8 158.9 73.3 160.1 75.5C161.7 78.5 163.6 81.4 165.3 84.3L165.9 85L166.3 84.9L166.5 74.8C166.5 71.4 165.2 68.2 164.2 64.8H169.8C169.7 65.4 169.5 65.9 169.5 66.5C169.3 68.3 169 70.2 169 72.1C169 78.1 169 84.1 169.2 90.1C169.2 93.1 169.7 96.2 171 99.1C171.2 99.7 171 99.9 170.4 100H166.6C166.4 100 166 99.6 166 99.3C166 97.5 166 95.7 165.8 93.9C165.7 90.1 164.4 86.8 162.2 83.7C160.6 81.4 159.2 78.9 157.7 76.5C157.3 75.9 157.1 75.2 156.9 74.5H156.6L156.5 75.4C156.5 82.9 156.1 87.1 156.3 94.7C156.3 96.1542 156.502 97.6014 156.9 99L157 99.3C157.2 99.9 157.5 101 157.5 101.5C157.6 102.1 156.9 104.2 156.2 106.1L155.2 108.9L155.1 109.3C155.1 109.7 154.8 110.1 154.6 110.5C154.202 111.087 154.025 111.795 154.1 112.5C154.1 113.2 154.3 113.9 154.4 114.5L154.6 116.2C154.6 116.8 154.9 117.4 155.4 117.9C156.2 118.9 157.1 119.9 158.1 120.7L158.5 121.2L158.9 121.4L163.4 122.8C164.7 123.2 166 124.1 167.5 124.2C170.302 124.413 173.12 124.313 175.9 123.9L178.2 123.4L181.2 122.7C182.8 122.4 184.4 121.3 185.7 120.7L187 119.7C187.8 119 188.6 118.2 189.2 117.4C189.4 117.1 189.7 116.9 189.8 116.6C190.1 116.3 190.2 115.9 190.4 115.6L191.1 113.6C191.3 112.7 191.1 111.9 190.5 111.2C189.5 110 188.1 108.9 186.3 108.1C184.446 107.27 182.579 106.47 180.7 105.7L179.7 105.5C177.7 105.4 175.7 105.3 173.6 105.4L172.5 105.5L168.6 106.3C167.2 106.5 166 107 164.8 107.4C163.9 107.8 163.2 108.2 162.7 108.8L161.2 110.3L160.5 111L160.3 111.3V113.4C160.3 113.9 160.3 114.4 160.1 114.8C160.1 115.2 160.3 115.6 160.7 116C161.791 116.95 163.044 117.696 164.4 118.2L167.4 119.4L170.4 120.6C171 120.9 171.7 121 172.4 121.1H174.9L178.3 120.4H178.9L179.1 120.2L180.1 119.6C181.454 118.628 182.787 117.627 184.1 116.6C184.4 116.3 184.4 115.9 184.4 115.5L184.1 114.2C183.6 113.3 183 112.5 182.1 111.6L181.5 111C181.2 110.8 180.7 110.8 180.3 110.7L177.5 110.2L175.5 110.1H175.1C174 110.5 172.9 110.8 172 111.3L169.8 112.8L169.1 113.6V113.8C169 114.3 169 114.8 169.2 115.3L169.9 116.1C169.9 116.3 170.1 116.4 170.2 116.6L170.6 116.8L172.6 117.2L173.4 117.3H174.8C175.8 117.1 176.4 116.8 176.8 116.3C177.2 115.7 177.8 115.1 178.1 114.5V113.8L178 113L177.7 112.8H175.5C175 113 174.5 113.1 174.1 113.4L174 113.9C174 114.1 174.3 114.3 174.5 114.5C174.7 114.8 175.1 114.8 175.5 114.8H176.4C176.7 114.7 176.8 114.4 176.5 114.3L176.1 114.1H176V113.6L176.3 113.5C176.9 113.3 177.6 113.5 177.8 113.8C177.8 113.9 177.9 114.1 177.8 114.2L177.1 115.1C176.9 115.3 176.6 115.5 176.2 115.6L175.5 115.9L174.6 116.1L172.1 116.3L170.8 116.1V116C170.6 115.6 170.4 115.2 170.4 114.9L170.6 114.3L171.6 113L171.9 112.8L173.4 112.1L175.2 111.6L176.8 111.4H177.3C177.8 111.3 178.3 111.4 178.7 111.5C179.3 111.7 179.9 111.9 180.2 112.3C180.5 112.4 180.6 112.7 180.7 112.9C181 113.3 181.2 113.8 181.3 114.2V115.4L181.2 115.8L180.8 116.6L180 117.4L177.7 118.7L175.9 119.3C173.9 119.9 171.2 119.3 169.6 118.8C168.086 118.235 166.586 117.635 165.1 117C164.1 116.6 164.2 116 163.9 115.5C163.5 115 163.5 114.1 163.5 114L163.7 113.3C163.7 113 163.9 112.7 164 112.5L164.3 112.2L166.4 110.8L166.9 110.5L167.4 110.4L167.9 110.2L169.1 109.8L171.2 109.1L171.9 109L172.2 108.9L172.7 108.6L174.2 108.3H174.5L179 108.5C180 108.5 181 108.8 182 109L183.5 109.4H183.6C183.8 109.5 183.8 109.5 183.6 109.6C184.1 110.1 184.9 110.5 185.3 111H185.2L185 110.9V111.2L185.8 112.2L186.4 114.1V115.5C186.4 116 186.2 116.5 185.9 117L184.9 118.3C184.5 118.9 183.9 119.4 183.2 119.8C182.5 120.2 181.7 120.2 181 120.6C179.491 121.424 177.817 121.902 176.1 122L173.1 122.3L171.7 122.2C170 121.8 168.4 121.9 166.7 121.7C164.689 121.396 162.712 120.894 160.8 120.2C159.673 119.459 158.773 118.421 158.2 117.2C157.832 116.305 157.597 115.362 157.5 114.4C157.5 113.7 157.5 112.9 157.7 112.2C157.875 111.5 158.144 110.828 158.5 110.2L159.5 108.8L160.3 107.8C160.6 107.4 161.1 107.1 161.6 106.8C162.9 106.1 164.3 105.6 165.8 105.1L166.1 105C166.4 105 166.5 104.8 166.5 104.6C167.2 104.2 167.8 103.8 168.7 103.6C169.7 103.3 170.9 103.1 172.1 103.1H176.2C178.469 103.067 180.737 103.133 183 103.3C183.6 103.7 184.4 104 185.2 104.3L186.4 104.7L188 105.5L189.4 106.3C191.027 107.325 192.342 108.778 193.2 110.5C193.73 111.976 194.001 113.532 194 115.1L193.9 116.4L193.6 117L193.1 118C192.9 118.5 192.5 118.9 192.1 119.3C191.4 120.3 190.3 121 189.3 121.9L187.5 123.1C187.308 123.188 187.106 123.255 186.9 123.3L184.9 123.9C183.9 124.1 182.9 124.9 182.1 125.1C180.7 125.3 178.6 126 177.1 126.3L176.5 126.4C174.5 126.6 171.3 126.4 168.5 126.2C165.6 126.1 161 125.2 161 125.2L157.9 124.5L157.2 124.2C155.732 123.48 154.487 122.374 153.6 121C152.1 119.2 151.6 117.8 151.6 116.3C151.6 114.9 151.4 112.6 151.7 111.1L152.3 108.9C152.5 108 152.9 105.7 153.2 102.3V102C153.2 92.3 153.9 88.7 153.7 79ZM173.7 71.3V70.5H178.4L178 73.2C177.4 76.9 177 80.7 177.5 84.5C177.7 85.8 177.9 85.9 179.1 85.5C181.8 84.3 183.6 82.1 185.1 79.7C186.2 77.7 186.8 75.5 186.4 73.2L185.6 70.5H191.1C190.7 71.9 190.1 73.2 189.9 74.5C189.2 77.9 187.5 80.7 185.4 83.3C184.5 84.4 184.4 85.6 184.8 87C186.4 92.9 186.7 91.3 188.4 97.2C188.672 98.2194 189.006 99.2212 189.4 100.2L189.9 101.4L190.1 102.6C190.1 103 189.6 103.4 188.2 102.6C186.8 101.8 185.3 101.7 184.2 100.8C183.9 100.6 183.7 99.8 183.8 99.5C185.2 95.5 184 92.2 182.9 88.3C182.842 88.0644 182.775 87.8309 182.7 87.6V87.3C182.5 86.6 182.1 86.3 181.4 86.3C180.433 86.3925 179.53 86.8252 178.853 87.5211C178.175 88.2171 177.767 89.131 177.7 90.1C177.5 93.7 177.4 93.4 178.1 96.9L178.5 99.4V99.7C178.5 100.3 178.5 100.7 177.5 100.5C176.3 100.3 175.3 100.5 174.7 100.5C174.1 100.3 174.4 99.5 174.5 99.4C175.5 95.9 175.2 95.2 175.2 90.9C174.2 90.9 173.7 91.4 173.6 92.2L173.2 95C173.2 95.2 172.6 95.5 172.3 95.5C172.1 95.5 171.6 95.1 171.6 94.8V92.2C171.7 91.2 172.1 90.2 173.1 89.7C174.7 88.9 175.1 87.4 175.1 85.8C175.3 80.8 175.1 76 173.7 71.3ZM198.2 77.6H205.9C206.9 77.6 207.7 77.2 208.6 77L209.6 76.8C209.7 78.6 208.8 80 208.3 81.5C208.1 81.5 207.9 81.5 207.8 81.3C206.5 80 204.8 79.8 203.2 79.8H198.4C197.7 79.7 197.4 80 197.4 80.7L197.8 99.8C197.8 100.7 198 101.6 198.2 102.4C198.4 102.9 198.6 103.4 199 103.8C202.8 106.6 207 108.8 211.7 109.2H212.7C212.433 109.204 212.167 109.204 211.9 109.2H213.5C214.7 109.2 216.2 109.2 217.7 108.8C219.1 108.3 219.3 108.5 219.6 109.3V109.5L219.8 109.9C220.2 110.6 220 111 219.2 111.4C217.1 112.2 215 112.3 212.8 112C209.4 111.5 206.3 110.3 203.3 108.6C200.3 106.8 197.3 105.2 194.3 103.6C193.4 103.1 193.2 102.6 193.6 101.6C194.8 98.6 195.1 95.4 195.1 92.3C195.2 87.7 195.2 83.1 195 78.5C194.8 75.5 194.2 72.5 193.6 69.7C193.1 67.3 193 67.4 195.4 67.4H211.2C212.5 67.4 212.6 67.5 212.2 68.7L211.7 70.5C211.4 71.7 210.9 71.9 209.8 71.2C209.3 70.8 208.8 70.4 208.3 70.2C207.3 69.8 206.3 69.5 205.4 69.5C203.4 69.3 201.4 69.5 199.4 69.5C198.7 69.4 198.2 69.5 198.1 70.3L197.7 71.8L197.4 76.7C197.4 77.3 197.5 77.7 198.2 77.7V77.6ZM221.9 73.6C223.5 77.4 225.7 81.1 228.1 84.5L228.8 85.2C229.3 78.2 229.8 71.4 226.6 64.9H232.4L232.1 66.5C231.9 68.4 231.6 70.3 231.6 72.1C231.6 78.1 231.6 84.1 231.8 90.1C231.9 93.1 232.3 96.2 233.6 99.1C233.9 99.7 233.6 99.9 233.1 100H229.2C229 100 228.7 99.6 228.7 99.3L228.5 93.9C228.4 90.1 227 86.8 224.8 83.7C223.2 81.4 221.8 78.9 220.4 76.5C220 75.9 219.8 75.2 219.5 74.5H219.3L219.1 75.4C219.2 83 219.1 90.6 219.4 98.2C219.4 100.5 219.8 102.8 220.3 105C220.5 106 220.1 106 219.3 106L217 106.3C216.6 106.3 216.5 105.9 216.5 105.7V79.4C216.404 76.3211 215.934 73.2654 215.1 70.3C215.1 70 215.1 69.4 215.4 69.3C217.415 68.4843 219.448 67.7175 221.5 67C222.1 67 222.5 67.2 222.3 67.9C222.2 68.1 222.2 68.4 222 68.6C221.605 69.3741 221.399 70.2309 221.399 71.1C221.399 71.9691 221.605 72.8259 222 73.6H221.9ZM147.6 148.4C147.6 148.4 147.7 148.2 147.9 148.2L148.5 147.5L149.1 146L149.7 144.5L150.1 143.8L150.5 143L151.4 141.6L151.8 140.7L152.2 139.8L152.6 139.1L153 138.3L153.6 136.9L154.4 135.5L155.4 133.1C155.4 132.8 155.4 132.7 155.2 132.6L154.6 132.5L153.9 132.3C153.7 132.3 153.6 132.1 153.7 132L153.9 131.9H154.3L154.7 132.1H155.5C156.699 132.026 157.901 132.026 159.1 132.1L159.3 132.2H159.6L159.9 132.3L160.1 132.4C160.3 132.6 160.1 132.6 159.7 132.6H158.8C158.6 132.6 158.4 132.6 158.2 132.9C157.8 133.2 157.5 133.7 157.2 134.2L156.9 135C156.836 135.497 156.665 135.975 156.4 136.4C155.851 137.311 155.415 138.285 155.1 139.3L154.7 140.3L154.3 141.4L153.1 144C152.4 145.4 152.2 146.2 152.5 146.2C152.7 146.2 153 146.2 153.3 146H155.2C155.8 146 156.4 146.3 157.2 146.6C158 147 158.6 147.3 159.2 147.4L161 148.4C162.397 149.084 163.987 149.261 165.5 148.9C166.3 148.7 166.8 148.3 167 147.7L166.9 147.2C166.8 147.2 166.7 147 166.8 146.7C166.8 146.6 166.8 146.6 167 146.7C167.3 146.7 167.5 147 167.5 147.3V148.3L166.9 149.3L166.5 149.7C166.1 150.2 165.7 150.6 165.1 150.7C163.939 150.931 162.772 151.131 161.6 151.3C161.111 151.204 160.639 151.036 160.2 150.8C158.547 149.818 156.762 149.077 154.9 148.6L153.7 148.3L152.4 148C151.4 148 150.6 148 149.8 148.3L148.4 148.5C147.7 148.7 147.4 148.7 147.6 148.4ZM184.6 143L181.8 140.3C181.6 140 181.4 139.5 181.3 138.7V136.2C181.3 135.3 181.4 134.8 181.6 134.6L182.1 133.9C182.2 133.7 182.5 133.5 183.1 133.3L183.8 133L184.6 132.7L185.9 132.2L187.3 131.7C187.7 131.6 188 131.5 188.2 131.6L188.9 132L189.7 132.5C190.9 133.5 191.5 134 191.5 134.2C191.5 134.4 191.3 134.8 190.8 135.2L190.4 135.5L189.8 135.7H188.9L188.5 135.5L188.2 135.2C188 135.2 187.9 135 187.9 134.9C187.8 134.7 187.7 134.5 187.8 134.4C187.8 134.4 187.8 134.2 188 134.1C188.2 133.9 188.4 133.9 188.5 133.9C188.7 133.9 188.7 133.9 188.6 134L188.3 134.4V134.9L188.9 135.2H189.3C189.566 135.164 189.833 135.131 190.1 135.1L190.3 134.9C190.3 134.9 190.5 134.8 190.5 134.6L190.7 134.2L190.4 133.7L189.9 133.3L189.3 133L188.1 132.6H187.4C187.1 132.8 186.7 132.8 186.4 132.9C185.837 133.027 185.319 133.303 184.9 133.7L184.3 134.9L183.8 136.3L184 137.7C184.1 138.4 184.3 139 184.5 139.3C184.6 139.8 184.9 140.3 185.2 140.9L186.3 142.3C186.6 142.7 187.2 143 188.1 143.5L190.1 144.4L191.3 144.6H192.6C193.483 144.462 194.332 144.157 195.1 143.7C195.4 143.4 195.6 143.1 195.6 142.7V141.6C195.5 141.1 195.2 140.7 194.9 140.4C194.5 140.1 194.5 140 194.9 139.9C195 139.9 195.2 139.9 195.3 140.1C195.3 140.3 195.5 140.5 195.8 140.7L196.5 141.8L196.9 142.4L197.3 143C197.6 143.7 197.3 144 196.5 144.1C196.1 144.1 195.8 144.4 195.4 144.8C195 145.3 194.2 145.7 193.2 146H192C191.183 146.008 190.371 145.872 189.6 145.6L187.6 145L184.6 143ZM210.6 135.2L208.4 133.8L214 125.2C210.864 123.288 207.662 121.487 204.4 119.8L203.7 119.4L203.1 119.2L195.1 122.8L197.7 127.2L204.8 126L202.8 123.7L200.3 123.9L201.1 124.9L197.5 123.4L198.8 122.7L203.2 121.7L203.6 121.6L203.9 122L206.6 126.1L207.1 127L197.5 128.6H197.1L193.2 122.2L193.9 122L203 117.8L204.1 118.2C208.488 119.98 212.706 122.156 216.7 124.7L216.3 125.2L210.3 133.4C211.3 133.8 212.1 134.4 213 134.8L220.2 139.6L221.6 140.6L220.1 142.4C217.1 139.9 213.9 137.4 210.6 135.2ZM215.6 133.1L216.3 131.8C219.607 126.198 222.676 120.46 225.5 114.6C226.1 114.6 226.7 114.8 227.2 114.9L230.2 115.7L231.2 116.1V116.6L228.9 129.1V129.4C226.733 130.144 224.531 130.778 222.3 131.3L222.6 130.3C223.173 128.407 223.575 126.465 223.8 124.5L226.4 125.3L224.9 125.8L224.7 126.8C224.565 127.639 224.398 128.473 224.2 129.3L224.1 129.6L226.9 128.8L227.9 128.5L229.9 116.9H229.8C228.682 116.622 227.546 116.421 226.4 116.3L225.6 117.7C222.807 122.324 220.27 127.098 218 132C221.8 133 225.4 134.1 229 135.6L234.5 111.6H227.1L225 111.4L224.2 113C223.126 114.928 221.852 116.738 220.4 118.4C218.7 118.4 217 118.4 215.4 118.2C210.6 117.7 205.8 116.6 201.2 115.1L200.9 115H200.8L200.7 114.9L201.6 112.8C207.352 115.123 213.419 116.572 219.6 117.1L219.8 116.8L224.4 110.1H224.7C228.031 110.28 231.369 110.28 234.7 110.1L236.5 109.9L230.3 138.3L228.9 137.6C224.591 135.691 220.102 134.217 215.5 133.2L215.6 133.1ZM109.9 114.8C110.379 113.443 111.207 112.236 112.3 111.3C113.3 110.5 114.6 110 116.1 109.9C116.1 109.9 119.1 109.5 122.1 106.9L122.6 106.3H122.7C124.7 104.3 126.3 101.8 126.9 98.7C128 93.4 127 89.7 122.5 86.5C121.9 86.1 121.5 86.1 121.2 86.8C120.2 89.2 119.2 91.6 118.5 94.1C117.8 96.1 117.5 98.1 117.1 100.5C115.9 99.4 115 98.4 114.4 97C114.2 96.8 114.4 96.2 114.6 96L119.4 87C120.2 85.3 120 85.2 118.6 84.1C117.2 83.1 115.8 82.1 114.6 80.8C111.7 77.6 112.8 73.2 116.8 71.7C118.3 71.2 119.9 70.9 121.4 70.9C123.7 70.8 125.9 71 128.2 71.1L129.1 71.3L127.6 73.5L122.8 82.1L122.6 82.5C122.1 84.1 122.1 84.2 123.5 85.1L126.5 87.1C129.2 88.8 130.4 91.5 130.7 94.7C130.948 98.0577 130.109 101.406 128.309 104.251C126.508 107.096 123.841 109.287 120.7 110.5H120.4C117.4 111.5 114.7 112.7 112.4 114.8C111.841 115.269 111.13 115.518 110.4 115.5C110.314 115.507 110.227 115.492 110.148 115.456C110.069 115.419 110.001 115.363 109.951 115.292C109.9 115.222 109.869 115.139 109.86 115.053C109.851 114.967 109.865 114.879 109.9 114.8ZM1892.2 550.1L1891.6 557.5L1889.5 586.1C1888.8 595.4 1888.2 604.8 1888.7 614.1C1889.1 621.9 1890.5 629.6 1891.9 637.2L1891.7 673.4C1891 675 1890.2 676.6 1889.7 678.2C1888 682.5 1888.5 687 1888.9 691.5C1889.7 700.8 1890.8 710.2 1891.1 719.5C1891.5 728.2 1890.4 736.7 1889.6 745.4C1888.9 753.5 1888.6 761.9 1891 769.8C1890.3 864 1889.5 958 1888.5 1051.8L1850.3 1051.1C1838.3 1050.4 1826.3 1048.9 1814.3 1047.1L1802.3 1045.1C1800.3 1044.9 1798.5 1044.7 1796.5 1045C1794.5 1045.2 1792.6 1045.7 1790.7 1046.2C1783.02 1047.97 1775.18 1048.91 1767.3 1049C1751.5 1049.4 1735.7 1047.3 1719.9 1046C1703.77 1044.63 1687.56 1044.43 1671.4 1045.4C1663.1 1045.8 1654.8 1046.6 1646.6 1047.4C1476.5 1044 1292 1039.7 1132.6 1041.4C1121.9 1041.7 1099.1 1040.8 1088.7 1042.7C1079.2 1044.4 1069.2 1047.7 1059.5 1048L1055.4 1048.1L1052.9 1047.9L1047.9 1047.2L1045.6 1046.4C1044.6 1046 1044 1046.4 1043 1047C1040.7 1048.4 1037.7 1048 1035.2 1047.5C1032 1047 1028.9 1046.3 1025.7 1046.5C1022.23 1046.72 1018.84 1047.61 1015.7 1049.1L957.2 1049.9C821.8 1049.7 676.4 1051.5 540.7 1051.9L533.4 1051.6C520.4 1050.8 76.2 1031.6 26 1029.1L27.2 867.7L28.6 865C30.1 862.4 31 859.8 30.3 856.8C30.0011 855.51 29.3422 854.331 28.4 853.4C29.7087 851.977 30.5771 850.206 30.9 848.3C31.6 844.3 30.2 840.3 29.2 836.5C28.3 832.8 27.8 829 27.5 825.2V814.3L27.7 812.7C28.1 808.8 28.9 805 30 801.2C31.1 797.2 32.9 793.5 33.7 789.5C35.5 781.3 32.4 773.5 30.4 765.6C29.1245 760.552 28.321 755.397 28 750.2L28.1 738.8C28.7 731 30.4 723.3 31.8 715.5C33.2 707.5 33.9 699.3 33.6 691C33.3 683 32.2 675 31 667L28.8 652L29.8 504.8C30.2 500.8 30.3 496.7 30.3 492.6C30.3 487.6 30.3 482.7 30.1 477.7L31.3 312.3C31.6 305 32 297.7 32.5 290.5C33.3 279.4 34.5 268.2 35.3 257.1C36.1 245.9 36.5 234.6 35.7 223.4C35.1 213.8 33 204.4 32.2 194.8L32.3 171.8L66.7 189.8L68.7 190.8L103.9 167.2L109.9 176.8L231.5 164.5L266.5 131.3L270.2 74.1L265 60.1L312.8 29.7C428.5 34.4 578.5 32 705.6 33.1C918.9 32.8 1135.1 31.1 1348.5 27.5C1452.9 26.8 1775.7 33.5 1889.6 34.6C1890.3 78.9 1890.8 123.3 1891.2 167.6L1890.5 169C1889.5 170.9 1888.2 172.6 1887.4 174.5C1886.87 175.581 1886.56 176.757 1886.49 177.959C1886.42 179.162 1886.59 180.366 1887 181.5C1887.5 182.8 1888.4 184.1 1889 185.5C1889.6 186.7 1890 188 1890.2 189.3C1891.3 194.9 1889.7 200.8 1888.7 206.3C1887.6 212.515 1887.56 218.873 1888.6 225.1C1889.4 231.4 1890.8 237.6 1890.8 244C1890.9 250.2 1890 256.3 1889 262.4C1888 268.7 1886.8 275 1886.4 281.4C1885.9 287.6 1886.4 293.8 1887.4 300C1888.6 308.1 1890.6 316 1892.1 324C1892.4 399.4 1892.4 474.7 1892.1 550L1892.2 550.1ZM175.2 137.7C175.2 137.1 175 136.7 174.7 136.1C174.451 135.667 174.282 135.193 174.2 134.7L173.8 133.3C173.613 132.85 173.479 132.381 173.4 131.9C173.3 131.9 173.1 132.1 172.9 132.6L172.5 133.6L172.2 134.4C172.13 134.755 171.995 135.095 171.8 135.4L171.6 135.5C171.421 135.813 171.286 136.15 171.2 136.5V136.8C171.2 136.9 171.2 137 171.6 136.9H172.6L174.1 137.2L175.3 137.8V137.7H175.2ZM141 139C141.2 139 141.7 139 142.4 138.7C143.34 138.458 144.274 138.191 145.2 137.9C145.5 137.9 145.9 137.6 146.4 137.2L147.4 136.5C148.076 136.059 148.683 135.52 149.2 134.9L149.6 134.4C149.8 134.4 149.9 134.2 150 134V133.9C150 133.8 150 133.7 149.8 133.6L149.5 133.3L149.2 133.1L148.8 132.9H148.1C147.867 132.916 147.633 132.916 147.4 132.9H146.3C145.8 132.9 145.5 133.1 145.3 133.4L144.4 134.4C144.2 134.4 144.1 134.6 143.9 134.7L143.5 135.2L142.5 136.7L141.7 138.3C141.7 138.5 141.5 138.6 141.3 138.7C141.189 138.748 141.087 138.816 141 138.9H141.1L141 139ZM122.8 76.4C123.2 75.2 122.6 73.7 121.8 73C120.8 72.4 119.7 72.5 118.6 73.3C118.115 73.6546 117.706 74.1027 117.397 74.6179C117.087 75.1332 116.885 75.7051 116.8 76.3V78.4C117.1 80.5 118.5 81.7 120.3 82.7L120.9 81.8L122.8 76.4ZM175.2 137.7C175.2 137.1 175 136.7 174.7 136.1C174.451 135.667 174.282 135.193 174.2 134.7L173.8 133.3C173.613 132.85 173.479 132.381 173.4 131.9C173.3 131.9 173.1 132.1 172.9 132.6L172.5 133.6L172.2 134.4C172.13 134.755 171.995 135.095 171.8 135.4L171.6 135.5C171.421 135.813 171.286 136.15 171.2 136.5V136.8C171.2 136.9 171.2 137 171.6 136.9H172.6L174.1 137.2L175.3 137.8V137.7H175.2ZM149.8 133.6L149.5 133.3L149.2 133.1L148.8 132.9H148.1C147.867 132.916 147.633 132.916 147.4 132.9H146.3C145.8 132.9 145.5 133.1 145.3 133.4L144.4 134.4C144.2 134.4 144.1 134.6 143.9 134.7L143.5 135.2L142.5 136.7L141.7 138.3C141.7 138.5 141.5 138.6 141.3 138.7C141.189 138.748 141.087 138.816 141 138.9H141.1L142.4 138.7C143.34 138.458 144.274 138.191 145.2 137.9C145.5 137.9 145.9 137.6 146.4 137.2L147.4 136.5C148.076 136.059 148.683 135.52 149.2 134.9L149.6 134.4C149.8 134.4 149.9 134.2 150 134V133.9C150 133.8 150 133.7 149.8 133.6ZM121.8 73C120.8 72.4 119.7 72.5 118.6 73.3C118.115 73.6546 117.706 74.1027 117.397 74.6179C117.087 75.1332 116.885 75.7051 116.8 76.3V78.4C117.1 80.5 118.5 81.7 120.3 82.7L120.9 81.8L122.8 76.4C123.2 75.2 122.6 73.7 121.8 73ZM175.2 137.7C175.2 137.1 175 136.7 174.7 136.1C174.451 135.667 174.282 135.193 174.2 134.7L173.8 133.3C173.613 132.85 173.479 132.381 173.4 131.9C173.3 131.9 173.1 132.1 172.9 132.6L172.5 133.6L172.2 134.4C172.13 134.755 171.995 135.095 171.8 135.4L171.6 135.5C171.421 135.813 171.286 136.15 171.2 136.5V136.8C171.2 136.9 171.2 137 171.6 136.9H172.6L174.1 137.2L175.3 137.8V137.7H175.2ZM149.8 133.6L149.5 133.3L149.2 133.1L148.8 132.9H148.1C147.867 132.916 147.633 132.916 147.4 132.9H146.3C145.8 132.9 145.5 133.1 145.3 133.4L144.4 134.4C144.2 134.4 144.1 134.6 143.9 134.7L143.5 135.2L142.5 136.7L141.7 138.3C141.7 138.5 141.5 138.6 141.3 138.7C141.189 138.748 141.087 138.816 141 138.9H141.1L142.4 138.7C143.34 138.458 144.274 138.191 145.2 137.9C145.5 137.9 145.9 137.6 146.4 137.2L147.4 136.5C148.076 136.059 148.683 135.52 149.2 134.9L149.6 134.4C149.8 134.4 149.9 134.2 150 134V133.9C150 133.8 150 133.7 149.8 133.6ZM121.8 73C120.8 72.4 119.7 72.5 118.6 73.3C118.115 73.6546 117.706 74.1027 117.397 74.6179C117.087 75.1332 116.885 75.7051 116.8 76.3V78.4C117.1 80.5 118.5 81.7 120.3 82.7L120.9 81.8L122.8 76.4C123.2 75.2 122.6 73.7 121.8 73ZM175.2 137.7C175.2 137.1 175 136.7 174.7 136.1C174.451 135.667 174.282 135.193 174.2 134.7L173.8 133.3C173.613 132.85 173.479 132.381 173.4 131.9C173.3 131.9 173.1 132.1 172.9 132.6L172.5 133.6L172.2 134.4C172.13 134.755 171.995 135.095 171.8 135.4L171.6 135.5C171.421 135.813 171.286 136.15 171.2 136.5V136.8C171.2 136.9 171.2 137 171.6 136.9H172.6L174.1 137.2L175.3 137.8V137.7H175.2ZM149.8 133.6L149.5 133.3L149.2 133.1L148.8 132.9H148.1C147.867 132.916 147.633 132.916 147.4 132.9H146.3C145.8 132.9 145.5 133.1 145.3 133.4L144.4 134.4C144.2 134.4 144.1 134.6 143.9 134.7L143.5 135.2L142.5 136.7L141.7 138.3C141.7 138.5 141.5 138.6 141.3 138.7C141.189 138.748 141.087 138.816 141 138.9H141.1L142.4 138.7C143.34 138.458 144.274 138.191 145.2 137.9C145.5 137.9 145.9 137.6 146.4 137.2L147.4 136.5C148.076 136.059 148.683 135.52 149.2 134.9L149.6 134.4C149.8 134.4 149.9 134.2 150 134V133.9C150 133.8 150 133.7 149.8 133.6ZM121.8 73C120.8 72.4 119.7 72.5 118.6 73.3C118.115 73.6546 117.706 74.1027 117.397 74.6179C117.087 75.1332 116.885 75.7051 116.8 76.3V78.4C117.1 80.5 118.5 81.7 120.3 82.7L120.9 81.8L122.8 76.4C123.2 75.2 122.6 73.7 121.8 73ZM175.2 137.7C175.2 137.1 175 136.7 174.7 136.1C174.451 135.667 174.282 135.193 174.2 134.7L173.8 133.3C173.613 132.85 173.479 132.381 173.4 131.9C173.3 131.9 173.1 132.1 172.9 132.6L172.5 133.6L172.2 134.4C172.13 134.755 171.995 135.095 171.8 135.4L171.6 135.5C171.421 135.813 171.286 136.15 171.2 136.5V136.8C171.2 136.9 171.2 137 171.6 136.9H172.6L174.1 137.2L175.3 137.8V137.7H175.2ZM149.8 133.6L149.5 133.3L149.2 133.1L148.8 132.9H148.1C147.867 132.916 147.633 132.916 147.4 132.9H146.3C145.8 132.9 145.5 133.1 145.3 133.4L144.4 134.4C144.2 134.4 144.1 134.6 143.9 134.7L143.5 135.2L142.5 136.7L141.7 138.3C141.7 138.5 141.5 138.6 141.3 138.7C141.189 138.748 141.087 138.816 141 138.9H141.1L142.4 138.7C143.34 138.458 144.274 138.191 145.2 137.9C145.5 137.9 145.9 137.6 146.4 137.2L147.4 136.5C148.076 136.059 148.683 135.52 149.2 134.9L149.6 134.4C149.8 134.4 149.9 134.2 150 134V133.9C150 133.8 150 133.7 149.8 133.6ZM121.8 73C120.8 72.4 119.7 72.5 118.6 73.3C118.115 73.6546 117.706 74.1027 117.397 74.6179C117.087 75.1332 116.885 75.7051 116.8 76.3V78.4C117.1 80.5 118.5 81.7 120.3 82.7L120.9 81.8L122.8 76.4C123.2 75.2 122.6 73.7 121.8 73ZM149.8 133.6L149.5 133.3L149.2 133.1L148.8 132.9H148.1C147.867 132.916 147.633 132.916 147.4 132.9H146.3C145.8 132.9 145.5 133.1 145.3 133.4L144.4 134.4C144.2 134.4 144.1 134.6 143.9 134.7L143.5 135.2L142.5 136.7L141.7 138.3C141.7 138.5 141.5 138.6 141.3 138.7C141.189 138.748 141.087 138.816 141 138.9H141.1L142.4 138.7C143.34 138.458 144.274 138.191 145.2 137.9C145.5 137.9 145.9 137.6 146.4 137.2L147.4 136.5C148.076 136.059 148.683 135.52 149.2 134.9L149.6 134.4C149.8 134.4 149.9 134.2 150 134V133.9C150 133.8 150 133.7 149.8 133.6ZM121.8 73C120.8 72.4 119.7 72.5 118.6 73.3C118.115 73.6546 117.706 74.1027 117.397 74.6179C117.087 75.1332 116.885 75.7051 116.8 76.3V78.4C117.1 80.5 118.5 81.7 120.3 82.7L120.9 81.8L122.8 76.4C123.2 75.2 122.6 73.7 121.8 73ZM149.8 133.6L149.5 133.3L149.2 133.1L148.8 132.9H148.1C147.867 132.916 147.633 132.916 147.4 132.9H146.3C145.8 132.9 145.5 133.1 145.3 133.4L144.4 134.4C144.2 134.4 144.1 134.6 143.9 134.7L143.5 135.2L142.5 136.7L141.7 138.3C141.7 138.5 141.5 138.6 141.3 138.7C141.189 138.748 141.087 138.816 141 138.9H141.1L142.4 138.7C143.34 138.458 144.274 138.191 145.2 137.9C145.5 137.9 145.9 137.6 146.4 137.2L147.4 136.5C148.076 136.059 148.683 135.52 149.2 134.9L149.6 134.4C149.8 134.4 149.9 134.2 150 134V133.9C150 133.8 150 133.7 149.8 133.6ZM121.8 73C120.8 72.4 119.7 72.5 118.6 73.3C118.115 73.6546 117.706 74.1027 117.397 74.6179C117.087 75.1332 116.885 75.7051 116.8 76.3V78.4C117.1 80.5 118.5 81.7 120.3 82.7L120.9 81.8L122.8 76.4C123.2 75.2 122.6 73.7 121.8 73ZM121.8 73C120.8 72.4 119.7 72.5 118.6 73.3C118.115 73.6546 117.706 74.1027 117.397 74.6179C117.087 75.1332 116.885 75.7051 116.8 76.3V78.4C117.1 80.5 118.5 81.7 120.3 82.7L120.9 81.8L122.8 76.4C123.2 75.2 122.6 73.7 121.8 73ZM121.8 73C120.8 72.4 119.7 72.5 118.6 73.3C118.115 73.6546 117.706 74.1027 117.397 74.6179C117.087 75.1332 116.885 75.7051 116.8 76.3V78.4C117.1 80.5 118.5 81.7 120.3 82.7L120.9 81.8L122.8 76.4C123.2 75.2 122.6 73.7 121.8 73ZM121.8 73C120.8 72.4 119.7 72.5 118.6 73.3C118.115 73.6546 117.706 74.1027 117.397 74.6179C117.087 75.1332 116.885 75.7051 116.8 76.3V78.4C117.1 80.5 118.5 81.7 120.3 82.7L120.9 81.8L122.8 76.4C123.2 75.2 122.6 73.7 121.8 73ZM121.8 73C120.8 72.4 119.7 72.5 118.6 73.3C118.115 73.6546 117.706 74.1027 117.397 74.6179C117.087 75.1332 116.885 75.7051 116.8 76.3V78.4C117.1 80.5 118.5 81.7 120.3 82.7L120.9 81.8L122.8 76.4C123.2 75.2 122.6 73.7 121.8 73ZM121.8 73C120.8 72.4 119.7 72.5 118.6 73.3C118.115 73.6546 117.706 74.1027 117.397 74.6179C117.087 75.1332 116.885 75.7051 116.8 76.3V78.4C117.1 80.5 118.5 81.7 120.3 82.7L120.9 81.8L122.8 76.4C123.2 75.2 122.6 73.7 121.8 73ZM121.8 73C120.8 72.4 119.7 72.5 118.6 73.3C118.115 73.6546 117.706 74.1027 117.397 74.6179C117.087 75.1332 116.885 75.7051 116.8 76.3V78.4C117.1 80.5 118.5 81.7 120.3 82.7L120.9 81.8L122.8 76.4C123.2 75.2 122.6 73.7 121.8 73ZM121.8 73C120.8 72.4 119.7 72.5 118.6 73.3C118.115 73.6546 117.706 74.1027 117.397 74.6179C117.087 75.1332 116.885 75.7051 116.8 76.3V78.4C117.1 80.5 118.5 81.7 120.3 82.7L120.9 81.8L122.8 76.4C123.2 75.2 122.6 73.7 121.8 73ZM121.8 73C120.8 72.4 119.7 72.5 118.6 73.3C118.115 73.6546 117.706 74.1027 117.397 74.6179C117.087 75.1332 116.885 75.7051 116.8 76.3V78.4C117.1 80.5 118.5 81.7 120.3 82.7L120.9 81.8L122.8 76.4C123.2 75.2 122.6 73.7 121.8 73Z" fill="#FDFDFD"/>
<path d="M934.5 515.3C932.7 514.3 931.3 513.2 931 511V509V511.1C931.3 513.2 932.7 514.4 934.5 515.4L935.1 514.5L934.6 515.3H934.5ZM964.2 566.7L963.8 567L963.4 567.5C963.254 567.62 963.12 567.754 963 567.9L962.6 568.4L961.6 569.1L960.6 569.8L959.4 570.5L958.1 571C957.206 571.225 956.305 571.425 955.4 571.6H955.2L956.6 571.4C957.54 571.158 958.474 570.891 959.4 570.6C959.7 570.6 960.1 570.3 960.6 569.9L961.6 569.2C962.276 568.759 962.883 568.22 963.4 567.6L963.8 567.1C964 567.1 964.1 566.9 964.2 566.7ZM989.4 570.4L988.2 569.8L986.8 569.5C986.468 569.467 986.132 569.467 985.8 569.5H985.4C985.4 569.6 985.4 569.7 985.8 569.6H986.8L988.3 569.9L989.4 570.5V570.4Z" fill="black"/>
</g>
<defs>
<clipPath id="clip0_2247_73">
<rect width="1920" height="1080" fill="white"/>
</clipPath>
</defs>
</svg>
