<svg width="68" height="46" viewBox="0 0 68 46" fill="none" xmlns="http://www.w3.org/2000/svg">
<path d="M63.2565 4.22967L65.7136 10.7598L66.493 12.8271L67.9998 16.8324L66.939 33.0842L56.9631 42.5039L22.2834 45.9999L20.571 43.2894L19.3391 41.3278L14.9379 34.3618L16.4165 9.08301L3.9791 9.79946L1.66049 30.1235L9.01684 31.1399L12.7362 18.4746L8.23098 16.6187L6.51854 20.3564L7.88893 23.1229L9.56673 20.2722L10.7466 19.7975L8.15305 25.05L4.48136 20.1837L7.78934 13.0429L14.6283 17.141L11.3679 34.6013L0 31.483L1.04349 6.01434L16.5507 6.69626L16.7369 3.4938L32.1186 0L50.5355 0.934412L63.2565 4.22967Z" fill="white"/>
<path d="M48.6633 2.86598L33.5588 2.03731V2.03516L23.0352 4.62044L23.9249 6.97913L32.1169 9.0918L49.9147 10.1276L58.0547 7.96749L59.096 5.79007L48.6633 2.86598Z" fill="black"/>
</svg>
